<svg width="18" height="18" viewBox="0 0 18 18" fill="none" xmlns="http://www.w3.org/2000/svg">
<path d="M15.2438 0H1.74375C0.7875 0 0 0.7875 0 1.74375V15.2438C0 16.2 0.7875 17.0156 1.77188 17.0156H15.2719C16.2281 17.0156 17.0438 16.2281 17.0438 15.2438V1.74375C17.0156 0.7875 16.2 0 15.2438 0ZM6.1875 10.0406V5.90625H10.8V10.0125H6.1875V10.0406ZM10.8 11.3063V15.75H6.1875V11.3063H10.8ZM1.26562 5.90625H4.95V10.0125H1.26562V5.90625ZM12.0656 5.90625H15.75V10.0125H12.0656V5.90625ZM1.74375 1.26562H15.2438C15.525 1.26562 15.75 1.49063 15.75 1.77188V4.66875H1.26562V1.74375C1.26562 1.4625 1.4625 1.26562 1.74375 1.26562ZM1.26562 15.2438V11.3063H4.95V15.75H1.74375C1.4625 15.75 1.26562 15.525 1.26562 15.2438ZM15.2438 15.75H12.0656V11.3063H15.75V15.2438C15.75 15.525 15.525 15.75 15.2438 15.75Z" fill="#DEE4EE"/>
</svg>
