<svg width="18" height="18" viewBox="0 0 18 18" fill="none" xmlns="http://www.w3.org/2000/svg">
<path d="M14.2875 0.506348H3.7125C2.75625 0.506348 1.96875 1.29385 1.96875 2.2501V15.7501C1.96875 16.7063 2.75625 17.522 3.74063 17.522H14.3156C15.2719 17.522 16.0875 16.7345 16.0875 15.7501V2.2501C16.0313 1.29385 15.2438 0.506348 14.2875 0.506348ZM14.7656 15.7501C14.7656 16.0313 14.5406 16.2563 14.2594 16.2563H3.7125C3.43125 16.2563 3.20625 16.0313 3.20625 15.7501V2.2501C3.20625 1.96885 3.43125 1.74385 3.7125 1.74385H14.2875C14.5688 1.74385 14.7938 1.96885 14.7938 2.2501V15.7501H14.7656Z" fill="#DEE4EE"/>
<path d="M12.797 2.61572H9.73135C9.2251 2.61572 8.80322 3.0376 8.80322 3.54385V7.25635C8.80322 7.7626 9.2251 8.18447 9.73135 8.18447H12.797C13.3032 8.18447 13.7251 7.7626 13.7251 7.25635V3.51572C13.697 3.0376 13.3032 2.61572 12.797 2.61572ZM12.4313 6.89072H10.0688V3.88135H12.4313V6.89072Z" fill="#DEE4EE"/>
<path d="M4.97822 4.35938H7.03135C7.36885 4.35938 7.67822 4.07812 7.67822 3.7125C7.67822 3.34687 7.39697 3.09375 7.03135 3.09375H4.9501C4.6126 3.09375 4.30322 3.375 4.30322 3.74063C4.30322 4.10625 4.6126 4.35938 4.97822 4.35938Z" fill="#DEE4EE"/>
<path d="M4.97822 7.93145H7.03135C7.36885 7.93145 7.67822 7.65019 7.67822 7.28457C7.67822 6.91895 7.39697 6.6377 7.03135 6.6377H4.9501C4.6126 6.6377 4.30322 6.91895 4.30322 7.28457C4.30322 7.65019 4.6126 7.93145 4.97822 7.93145Z" fill="#DEE4EE"/>
<path d="M13.0782 10.2375H4.97817C4.64067 10.2375 4.3313 10.5188 4.3313 10.8844C4.3313 11.25 4.61255 11.5313 4.97817 11.5313H13.0782C13.4157 11.5313 13.7251 11.25 13.7251 10.8844C13.7251 10.5188 13.4157 10.2375 13.0782 10.2375Z" fill="#DEE4EE"/>
<path d="M13.0782 13.8096H4.97817C4.64067 13.8096 4.3313 14.0908 4.3313 14.4564C4.3313 14.8221 4.61255 15.1033 4.97817 15.1033H13.0782C13.4157 15.1033 13.7251 14.8221 13.7251 14.4564C13.7251 14.0908 13.4157 13.8096 13.0782 13.8096Z" fill="#DEE4EE"/>
</svg>
