<svg width="18" height="18" viewBox="0 0 18 18" fill="none" xmlns="http://www.w3.org/2000/svg">
<path d="M8.99995 7.79053C11.0812 7.79053 12.7687 6.15928 12.7687 4.13428C12.7687 2.10928 11.0812 0.478027 8.99995 0.478027C6.9187 0.478027 5.2312 2.10928 5.2312 4.13428C5.2312 6.15928 6.9187 7.79053 8.99995 7.79053ZM8.99995 1.77178C10.3781 1.77178 11.5031 2.84053 11.5031 4.1624C11.5031 5.48428 10.3781 6.55303 8.99995 6.55303C7.62183 6.55303 6.49683 5.48428 6.49683 4.1624C6.49683 2.84053 7.62183 1.77178 8.99995 1.77178Z" fill="#DEE4EE"/>
<path d="M10.8281 9.05615H7.17183C4.16245 9.05615 1.71558 11.5312 1.71558 14.5405V16.8749C1.71558 17.2124 1.99683 17.5218 2.36245 17.5218C2.72808 17.5218 3.00933 17.2405 3.00933 16.8749V14.5405C3.00933 12.2343 4.8937 10.3218 7.22808 10.3218H10.8562C13.1624 10.3218 15.0749 12.2062 15.0749 14.5405V16.8749C15.0749 17.2124 15.3562 17.5218 15.7218 17.5218C16.0875 17.5218 16.3687 17.2405 16.3687 16.8749V14.5405C16.2843 11.5312 13.8375 9.05615 10.8281 9.05615Z" fill="#DEE4EE"/>
</svg>
