<svg width="17" height="18" viewBox="0 0 17 18" fill="none" xmlns="http://www.w3.org/2000/svg">
<path d="M10.35 0C10.0125 0 9.70312 0.28125 9.70312 0.646875V6.27188C9.70312 6.60938 9.98437 6.91875 10.35 6.91875H16.3687C16.5375 6.91875 16.7062 6.83438 16.8187 6.72188C16.9312 6.58125 16.9875 6.4125 16.9875 6.24375C16.7625 2.72813 13.8375 0 10.35 0ZM10.9687 5.59688V1.29375C13.3031 1.575 15.1875 3.31875 15.6375 5.625H10.9687V5.59688Z" fill="#DEE4EE"/>
<path d="M14.8781 8.18435H8.60625V2.13747C8.60625 1.79997 8.325 1.51872 7.9875 1.51872C7.90313 1.51872 7.81875 1.51872 7.73438 1.51872C3.45938 1.4906 0 4.9781 0 9.2531C0 13.5281 3.4875 17.0156 7.7625 17.0156C12.0375 17.0156 15.525 13.5281 15.525 9.2531C15.525 9.08435 15.525 8.9156 15.4969 8.77497C15.4969 8.43747 15.2156 8.18435 14.8781 8.18435ZM7.7625 15.75C4.1625 15.75 1.26562 12.8531 1.26562 9.2531C1.26562 5.82185 3.96563 2.98122 7.36875 2.78435V8.8031C7.36875 9.1406 7.65 9.44997 8.01562 9.44997H14.2875C14.175 12.9375 11.2781 15.75 7.7625 15.75Z" fill="#DEE4EE"/>
</svg>
