<svg width="13" height="17" viewBox="0 0 13 17" fill="none" xmlns="http://www.w3.org/2000/svg">
<path d="M9.87188 0H6.69375C5.9625 0 5.34375 0.61875 5.34375 1.35V3.29062C5.34375 3.62812 5.625 3.90937 5.9625 3.90937C6.3 3.90937 6.60937 3.62812 6.60937 3.29062V1.32187C6.60937 1.26562 6.6375 1.2375 6.69375 1.2375H9.87188C10.5469 1.2375 11.0812 1.77187 11.0812 2.44687V14.5125C11.0812 15.1875 10.5469 15.7219 9.87188 15.7219H6.69375C6.6375 15.7219 6.60937 15.6938 6.60937 15.6375V13.6969C6.60937 13.3594 6.32812 13.0781 5.9625 13.0781C5.59687 13.0781 5.34375 13.3594 5.34375 13.6969V15.6375C5.34375 16.3688 5.9625 16.9875 6.69375 16.9875H9.87188C11.25 16.9875 12.3469 15.8625 12.3469 14.5125V2.475C12.3469 1.09688 11.2219 0 9.87188 0Z" fill="#DEE4EE"/>
<path d="M7.59375 8.0437L4.78125 5.17495C4.52813 4.92183 4.13437 4.92183 3.88125 5.17495C3.62812 5.42808 3.62812 5.82183 3.88125 6.07495L5.625 7.84683H0.61875C0.28125 7.84683 0 8.12808 0 8.46558C0 8.80308 0.28125 9.08433 0.61875 9.08433H5.65313L3.88125 10.8843C3.62812 11.1375 3.62812 11.5312 3.88125 11.7843C3.99375 11.8968 4.1625 11.9531 4.33125 11.9531C4.5 11.9531 4.66875 11.8968 4.78125 11.7562L7.59375 8.88745C7.84687 8.69058 7.84687 8.29683 7.59375 8.0437Z" fill="#DEE4EE"/>
</svg>
