<svg width="14" height="18" viewBox="0 0 14 18" fill="none" xmlns="http://www.w3.org/2000/svg">
<path d="M13.6687 1.96875C13.6687 0.9 12.7969 0 11.7 0H1.96875C0.9 0 0 0.871875 0 1.96875V16.0875C0 16.3125 0.140625 16.5375 0.3375 16.65C0.534375 16.7625 0.7875 16.7344 0.984375 16.6219L2.39063 15.6937L4.275 16.9313C4.5 17.0719 4.75313 17.0719 4.97813 16.9313L6.83437 15.6937L8.69062 16.9313C8.80312 17.0156 8.91562 17.0437 9.02812 17.0437C9.14062 17.0437 9.28125 17.0156 9.36562 16.9313L11.2219 15.6937L12.6281 16.65C12.825 16.7906 13.0781 16.7906 13.275 16.6781C13.4719 16.5656 13.6125 16.3406 13.6125 16.1156L13.6687 1.96875ZM11.8688 14.5687C11.5031 14.3156 11.025 14.3156 10.6594 14.5687L9.05625 15.6375L7.45312 14.5687C7.25625 14.4562 7.05937 14.3719 6.83437 14.3719C6.6375 14.3719 6.4125 14.4281 6.24375 14.5687L4.64062 15.6375L3.0375 14.5687C2.67188 14.3156 2.19375 14.3156 1.82812 14.5687L1.29375 14.9062V1.96875C1.29375 1.575 1.60313 1.26562 1.99688 1.26562H11.7562C12.15 1.26562 12.4594 1.575 12.4594 1.96875V14.9062L11.8688 14.5687Z" fill="#DEE4EE"/>
<path d="M5.76553 3.26245H3.34678C3.00928 3.26245 2.72803 3.5437 2.72803 3.8812C2.72803 4.2187 3.00928 4.49995 3.34678 4.49995H5.76553C6.10303 4.49995 6.38428 4.2187 6.38428 3.8812C6.38428 3.5437 6.10303 3.26245 5.76553 3.26245Z" fill="#DEE4EE"/>
<path d="M10.1812 3.26245H9.5062C9.1687 3.26245 8.88745 3.5437 8.88745 3.8812C8.88745 4.2187 9.1687 4.49995 9.5062 4.49995H10.1812C10.5187 4.49995 10.8 4.2187 10.8 3.8812C10.8 3.5437 10.5187 3.26245 10.1812 3.26245Z" fill="#DEE4EE"/>
<path d="M3.34678 8.2126H4.89365C5.23115 8.2126 5.5124 7.93135 5.5124 7.59385C5.5124 7.25635 5.23115 6.9751 4.89365 6.9751H3.34678C3.00928 6.9751 2.72803 7.25635 2.72803 7.59385C2.72803 7.93135 2.98115 8.2126 3.34678 8.2126Z" fill="#DEE4EE"/>
<path d="M10.1812 6.94678H9.5062C9.1687 6.94678 8.88745 7.22803 8.88745 7.56553C8.88745 7.90303 9.1687 8.18428 9.5062 8.18428H10.1812C10.5187 8.18428 10.8 7.90303 10.8 7.56553C10.8 7.22803 10.5187 6.94678 10.1812 6.94678Z" fill="#DEE4EE"/>
<path d="M5.76553 10.603H3.34678C3.00928 10.603 2.72803 10.8843 2.72803 11.2218C2.72803 11.5593 3.00928 11.8405 3.34678 11.8405H5.76553C6.10303 11.8405 6.38428 11.5593 6.38428 11.2218C6.38428 10.8843 6.10303 10.603 5.76553 10.603Z" fill="#DEE4EE"/>
<path d="M10.1812 10.603H9.5062C9.1687 10.603 8.88745 10.8843 8.88745 11.2218C8.88745 11.5593 9.1687 11.8405 9.5062 11.8405H10.1812C10.5187 11.8405 10.8 11.5593 10.8 11.2218C10.8 10.8843 10.5187 10.603 10.1812 10.603Z" fill="#DEE4EE"/>
</svg>
