<svg width="17" height="17" viewBox="0 0 17 17" fill="none" xmlns="http://www.w3.org/2000/svg">
<path d="M0.317059 6.29995H1.16081C1.32956 6.29995 1.44206 6.18745 1.47018 6.10308L1.86393 5.1187H4.78893L5.15456 6.10308C5.21081 6.27183 5.35143 6.29995 5.46393 6.29995H6.33581C6.64518 6.27183 6.75768 6.04683 6.64518 5.82183L4.31081 0.224951C4.25456 0.0562011 4.19831 0.0280762 4.02956 0.0280762H2.76393C2.65143 0.0280762 2.48268 0.0843261 2.45456 0.224951L0.0358087 5.87808C-0.0766913 6.07495 0.0920587 6.29995 0.317059 6.29995ZM3.35456 1.77183L4.19831 3.96558H2.48268L3.35456 1.77183Z" fill="#DEE4EE"/>
<path d="M9.00771 1.29375H15.7577C16.0952 1.29375 16.4046 1.0125 16.4046 0.646875C16.4046 0.28125 16.1233 0 15.7577 0H9.00771C8.67021 0 8.36084 0.28125 8.36084 0.646875C8.36084 1.0125 8.64209 1.29375 9.00771 1.29375Z" fill="#DEE4EE"/>
<path d="M15.7577 5.00635H9.00771C8.67021 5.00635 8.36084 5.2876 8.36084 5.65322C8.36084 6.01885 8.64209 6.3001 9.00771 6.3001H15.7577C16.0952 6.3001 16.4046 6.01885 16.4046 5.65322C16.4046 5.2876 16.0952 5.00635 15.7577 5.00635Z" fill="#DEE4EE"/>
<path d="M15.7576 9.9563H0.654443C0.316943 9.9563 0.00756836 10.2375 0.00756836 10.6032C0.00756836 10.9688 0.288818 11.25 0.654443 11.25H15.7576C16.0951 11.25 16.4044 10.9688 16.4044 10.6032C16.4044 10.2375 16.0951 9.9563 15.7576 9.9563Z" fill="#DEE4EE"/>
<path d="M15.7576 14.9062H0.654443C0.316943 14.9062 0.00756836 15.1875 0.00756836 15.5531C0.00756836 15.9187 0.288818 16.2 0.654443 16.2H15.7576C16.0951 16.2 16.4044 15.9187 16.4044 15.5531C16.4044 15.1875 16.0951 14.9062 15.7576 14.9062Z" fill="#DEE4EE"/>
</svg>
