<svg width="18" height="18" viewBox="0 0 18 18" fill="none" xmlns="http://www.w3.org/2000/svg">
<g clip-path="url(#clip0_902_4977)">
<path d="M3.45928 0.984375H1.6874C1.04053 0.984375 0.478027 1.51875 0.478027 2.19375V3.96563C0.478027 4.6125 1.0124 5.175 1.6874 5.175H3.45928C4.10615 5.175 4.66865 4.64063 4.66865 3.96563V2.16562C4.64053 1.51875 4.10615 0.984375 3.45928 0.984375ZM3.3749 3.88125H1.77178V2.25H3.3749V3.88125Z" fill="#DEE4EE"/>
<path d="M7.22793 3.71245H16.8748C17.2123 3.71245 17.5217 3.4312 17.5217 3.06558C17.5217 2.69995 17.2404 2.4187 16.8748 2.4187H7.22793C6.89043 2.4187 6.58105 2.69995 6.58105 3.06558C6.58105 3.4312 6.89043 3.71245 7.22793 3.71245Z" fill="#DEE4EE"/>
<path d="M3.45928 6.75H1.6874C1.04053 6.75 0.478027 7.28437 0.478027 7.95937V9.73125C0.478027 10.3781 1.0124 10.9406 1.6874 10.9406H3.45928C4.10615 10.9406 4.66865 10.4062 4.66865 9.73125V7.95937C4.64053 7.28437 4.10615 6.75 3.45928 6.75ZM3.3749 9.64687H1.77178V8.01562H3.3749V9.64687Z" fill="#DEE4EE"/>
<path d="M16.8748 8.2124H7.22793C6.89043 8.2124 6.58105 8.49365 6.58105 8.85928C6.58105 9.2249 6.86231 9.47803 7.22793 9.47803H16.8748C17.2123 9.47803 17.5217 9.19678 17.5217 8.85928C17.5217 8.52178 17.2123 8.2124 16.8748 8.2124Z" fill="#DEE4EE"/>
<path d="M3.45928 12.853H1.6874C1.04053 12.853 0.478027 13.3874 0.478027 14.0624V15.8343C0.478027 16.4812 1.0124 17.0437 1.6874 17.0437H3.45928C4.10615 17.0437 4.66865 16.5093 4.66865 15.8343V14.0624C4.64053 13.3874 4.10615 12.853 3.45928 12.853ZM3.3749 15.7499H1.77178V14.1187H3.3749V15.7499Z" fill="#DEE4EE"/>
<path d="M16.8748 14.2876H7.22793C6.89043 14.2876 6.58105 14.5688 6.58105 14.9345C6.58105 15.3001 6.86231 15.5813 7.22793 15.5813H16.8748C17.2123 15.5813 17.5217 15.3001 17.5217 14.9345C17.5217 14.5688 17.2123 14.2876 16.8748 14.2876Z" fill="#DEE4EE"/>
</g>
<defs>
<clipPath id="clip0_902_4977">
<rect width="18" height="18" fill="white"/>
</clipPath>
</defs>
</svg>
